Coordinates
version=1
nRows=22
nColumns=24
inDegrees=yes

Units are S.I. units (second, meters, Newtons, ...)
Angles are in degrees.

endheader
time	pelvis_tilt	pelvis_list	pelvis_rotation	pelvis_tx	pelvis_ty	pelvis_tz	hip_flexion_r	hip_adduction_r	hip_rotation_r	knee_angle_r	ankle_angle_r	subtalar_angle_r	mtp_angle_r	hip_flexion_l	hip_adduction_l	hip_rotation_l	knee_angle_l	ankle_angle_l	subtalar_angle_l	mtp_angle_l	lumbar_extension	lumbar_bending	lumbar_rotation
      4.64000000	      6.40761144	     -1.63877549	      1.71495461	      0.25309568	      0.91098107	     -0.20598048	     -2.83543645	      7.29074084	      4.74434784	     -9.50036455	     16.40366161	     -0.99621139	      0.00000000	     15.72878791	      1.09687477	      2.62519971	    -65.30161100	      5.51829739	     -6.43169206	      0.00000000	    -22.32231370	      1.19625397	      2.38801639
      4.65000000	      6.33437556	     -1.67724821	      1.38290321	      0.26369719	      0.91109047	     -0.20536416	     -3.90641653	      7.31850625	      5.26363651	     -8.73478223	     16.53450875	     -1.07712087	      0.00000000	     16.94239437	      1.17741875	      2.52979036	    -63.78103724	      6.40855550	     -6.10550095	      0.00000000	    -22.31827606	      1.15096129	      2.58163359
      4.66000000	      6.30722210	     -1.76011286	      1.10819060	      0.27425461	      0.91099695	     -0.20490698	     -5.03309007	      7.38914410	      5.92531833	     -7.95428598	     16.55403493	     -1.52995340	      0.00000000	     17.99409099	      1.23556976	      2.53738030	    -61.95427520	      7.13280524	     -6.09628817	      0.00000000	    -22.37220604	      1.20117379	      2.72652524
      4.67000000	      6.25500384	     -1.87607338	      0.81384886	      0.28478607	      0.91066997	     -0.20450430	     -6.06721162	      7.46808799	      6.40447347	     -7.29134671	     16.74383326	     -1.60062398	      0.00000000	     18.93931735	      1.24867525	      2.55162785	    -59.79667198	      7.47652471	     -6.53986040	      0.00000000	    -22.39227873	      1.29668281	      2.81657086
      4.68000000	      6.23608724	     -2.03147958	      0.56057990	      0.29531024	      0.91017342	     -0.20422887	     -7.13099541	      7.57811910	      6.87444797	     -6.63902036	     16.89547034	     -1.77313533	      0.00000000	     19.70821324	      1.23060752	      2.64493161	    -57.32001145	      7.66745282	     -7.28047381	      0.00000000	    -22.45510342	      1.46971797	      2.88427792
      4.69000000	      6.22439137	     -2.22105061	      0.32067065	      0.30585130	      0.90949802	     -0.20401073	     -8.19785804	      7.71480797	      7.36928696	     -6.00398886	     17.04110622	     -1.99049748	      0.00000000	     20.31368190	      1.16403690	      2.77386591	    -54.51368571	      7.62159096	     -8.36006923	      0.00000000	    -22.52455598	      1.68965894	      2.93549620
      4.70000000	      6.22654618	     -2.43024945	      0.10377899	      0.31643535	      0.90868175	     -0.20388932	     -9.28763771	      7.85930183	      7.88192826	     -5.36675961	     17.15682680	     -2.23702059	      0.00000000	     20.73540596	      1.07051033	      2.94996474	    -51.37399064	      7.29592135	     -9.72735268	      0.00000000	    -22.61041213	      1.95335576	      2.98490676
      4.71000000	      6.21495879	     -2.69238365	     -0.05460207	      0.32707161	      0.90764489	     -0.20385604	    -10.45599116	      8.06286603	      8.90961273	     -4.58634768	     16.95933400	     -3.23053411	      0.00000000	     21.02279055	      0.91707717	      3.21167342	    -47.95722706	      6.68995932	    -11.25052831	      0.00000000	    -22.67981147	      2.29361468	      3.01280757
      4.72000000	      6.27006002	     -2.92697910	     -0.26404707	      0.33781157	      0.90664068	     -0.20379422	    -11.56938603	      8.20744580	      9.25741988	     -4.04007330	     17.15091368	     -3.24202149	      0.00000000	     21.02061660	      0.74034686	      3.41647660	    -44.18065377	      5.85262737	    -12.72881911	      0.00000000	    -22.82637539	      2.57457067	      3.13000647
      4.73000000	      6.22796941	     -3.23780254	     -0.38946078	      0.34866462	      0.90529302	     -0.20387516	    -12.65302730	      8.43836073	     10.03112860	     -3.38663867	     16.99913109	     -3.96860018	      0.00000000	     20.99651234	      0.49348885	      3.74035222	    -40.21621779	      4.69903927	    -14.25910365	      0.00000000	    -22.84160106	      2.98907993	      3.13325857
      4.74000000	      6.28387390	     -3.55392268	     -0.52010728	      0.35963592	      0.90396416	     -0.20393669	    -13.76904717	      8.66827060	     10.46484404	     -2.88329189	     17.09375195	     -4.19199337	      0.00000000	     20.70666992	      0.19862949	      4.02618559	    -36.05085968	      3.48852636	    -15.29657573	      0.00000000	    -22.97694964	      3.38118799	      3.20193967
      4.75000000	      6.33000071	     -3.91584510	     -0.67560509	      0.37076593	      0.90249043	     -0.20394725	    -14.84215224	      8.93925013	     10.87413835	     -2.47644714	     17.16493307	     -4.31419803	      0.00000000	     20.31597756	     -0.18958361	      4.23216538	    -31.80401496	      2.28346247	    -15.79327017	      0.00000000	    -23.08705458	      3.79948613	      3.29500576
      4.76000000	      6.33428370	     -4.35348098	     -0.85876860	      0.38203112	      0.90082250	     -0.20391314	    -15.82576598	      9.28503363	     11.32376949	     -2.19222744	     17.25944963	     -4.45641152	      0.00000000	     19.90837318	     -0.68870394	      4.34842402	    -27.58231692	      1.07546395	    -15.79766239	      0.00000000	    -23.13875778	      4.29010418	      3.47844999
      4.77000000	      6.30213607	     -4.84093753	     -1.08624027	      0.39344577	      0.89901628	     -0.20380301	    -16.71583355	      9.67614533	     11.75822371	     -2.05274493	     17.36166195	     -4.54701772	      0.00000000	     19.50436485	     -1.26837420	      4.30319075	    -23.46172053	      0.02714201	    -15.23290647	      0.00000000	    -23.14096140	      4.80671054	      3.73113156
      4.78000000	      6.21718675	     -5.34491326	     -1.38542787	      0.40502485	      0.89710869	     -0.20359390	    -17.48200689	     10.07206257	     12.12119391	     -2.08390396	     17.54399755	     -4.44832626	      0.00000000	     19.13156229	     -1.88512468	      4.05021133	    -19.49115368	     -0.79363206	    -14.20639586	      0.00000000	    -23.07156291	      5.30667033	      4.07525250
      4.79000000	      6.16612886	     -5.81244287	     -1.70331685	      0.41677457	      0.89525475	     -0.20336502	    -18.24959086	     10.42016461	     12.42811474	     -2.21756737	     17.73481550	     -4.28329270	      0.00000000	     18.69367460	     -2.44857818	      3.65162650	    -15.67897474	     -1.45680794	    -12.91567913	      0.00000000	    -23.03359089	      5.74506254	      4.42003944
      4.80000000	      6.11459889	     -6.22467966	     -2.04767528	      0.42869705	      0.89345726	     -0.20310381	    -18.97237778	     10.70138392	     12.64340445	     -2.46263633	     17.95595190	     -4.00774340	      0.00000000	     18.24002657	     -2.94047853	      3.02596331	    -12.07625493	     -1.84174945	    -11.32903716	      0.00000000	    -22.98425646	      6.10197177	      4.77959074
      4.81000000	      5.94231339	     -6.63239888	     -2.38997186	      0.44074474	      0.89160098	     -0.20283191	    -19.46880266	     10.99473641	     12.55787691	     -2.90532989	     18.27478760	     -3.38330389	      0.00000000	     17.98567658	     -3.41665321	      1.93729571	     -8.83361316	     -1.82258863	     -9.18458019	      0.00000000	    -22.78206816	      6.46213326	      5.11950453
      4.82000000	      5.86171086	     -6.92568575	     -2.69122602	      0.45298764	      0.88996937	     -0.20265544	    -20.05334202	     11.16296898	     12.40843319	     -3.37072400	     18.52488101	     -2.78593503	      0.00000000	     17.51846007	     -3.69213290	      1.10953624	     -5.65407651	     -1.97462593	     -7.71563947	      0.00000000	    -22.67173114	      6.69849526	      5.39652142
      4.83000000	      5.65919418	     -7.12020049	     -3.00040340	      0.46544693	      0.88832537	     -0.20246244	    -20.43500228	     11.23649076	     12.01901214	     -3.97391668	     18.84731132	     -1.91327047	      0.00000000	     17.18913304	     -3.83975530	      0.03555680	     -2.76170608	     -1.86601623	     -6.23209498	      0.00000000	    -22.37698241	      6.82135023	      5.67754654
      4.84000000	      5.52967227	     -7.25388171	     -3.18546791	      0.47806105	      0.88685648	     -0.20243681	    -20.90819867	     11.26921064	     11.69482403	     -4.53927032	     18.98645993	     -1.30039391	      0.00000000	     16.76455753	     -3.85466841	     -0.84806623	     -0.09020623	     -1.87317132	     -5.24160946	      0.00000000	    -22.15812211	      6.91426740	      5.80338700
      4.85000000	      5.31182248	     -7.27620512	     -3.31779220	      0.49089564	      0.88541301	     -0.20247929	    -21.23829440	     11.20815001	     11.21093989	     -5.17958269	     19.13837898	     -0.51973097	      0.00000000	     16.53601183	     -3.71846939	     -2.07717584	      2.11301458	     -1.55905755	     -4.06880004	      0.00000000	    -21.78823888	      6.90065321	      5.84569332
